<svg width="24" height="24" viewBox="0 0 24 24" fill="none" xmlns="http://www.w3.org/2000/svg">
<path d="M21 12C21 7.02944 16.9706 3 12 3C7.02944 3 3 7.02944 3 12C3 16.9706 7.02944 21 12 21" stroke="#3676F7" stroke-width="1.5" stroke-linecap="round"/>
<path d="M16 11C16 7 14.2091 3 12 3C9.79086 3 8 7.02944 8 12C8 16.9706 9.79086 21 12 21" stroke="#3676F7" stroke-width="1.5" stroke-linecap="round"/>
<path d="M4 9H20" stroke="#3676F7" stroke-width="1.5" stroke-linecap="round" stroke-linejoin="round"/>
<path d="M4 15H13" stroke="#3676F7" stroke-width="1.5" stroke-linecap="round" stroke-linejoin="round"/>
<path d="M15 20.5V16.5C15 16.2239 15.2239 16 15.5 16H20.5C20.7761 16 21 16.2239 21 16.5V20.5C21 20.7761 20.7761 21 20.5 21H15.5C15.2239 21 15 20.7761 15 20.5Z" stroke="#3676F7" stroke-width="1.5" stroke-linecap="round" stroke-linejoin="round"/>
<path d="M16 16V15C16 13.8954 16.8954 13 18 13V13C19.1046 13 20 13.8954 20 15V16" stroke="#3676F7" stroke-width="1.5" stroke-linecap="round" stroke-linejoin="round"/>
</svg>
