<svg width="24" height="24" viewBox="0 0 24 24" fill="none" xmlns="http://www.w3.org/2000/svg">
<path d="M4.64888 5.75667L11.6489 3.13167C11.8753 3.04678 12.1247 3.04678 12.3511 3.13167L19.3511 5.75667C19.7414 5.90304 20 6.27616 20 6.693V10C20 13.1476 18.5181 16.1115 16 18L15 18.75C13.2222 20.0833 10.7778 20.0833 9 18.75L8 18C5.48194 16.1115 4 13.1476 4 10V6.693C4 6.27616 4.25857 5.90304 4.64888 5.75667Z" stroke="#3676F7" stroke-width="1.5" stroke-linecap="round" stroke-linejoin="round"/>
<path d="M9 15H15" stroke="#3676F7" stroke-width="1.5" stroke-linecap="round" stroke-linejoin="round"/>
<path d="M14 10L12.0707 11.9293C12.0317 11.9683 11.9683 11.9683 11.9293 11.9293L10 10" stroke="#3676F7" stroke-width="1.5" stroke-linecap="round" stroke-linejoin="round"/>
<path d="M12 7V11.3333" stroke="#3676F7" stroke-width="1.5" stroke-linecap="round" stroke-linejoin="round"/>
</svg>
