<svg width="20" height="20" viewBox="0 0 20 20" fill="none" xmlns="http://www.w3.org/2000/svg">
<circle cx="10" cy="10" r="7.5" stroke="#3676F7" stroke-width="1.25"/>
<path d="M15 15L5 5" stroke="#3676F7" stroke-width="1.25" stroke-linecap="round" stroke-linejoin="round"/>
<circle cx="10" cy="10" r="7.5" stroke="#3676F7" stroke-width="1.25"/>
<path d="M15 15L5 5" stroke="#3676F7" stroke-width="1.25" stroke-linecap="round" stroke-linejoin="round"/>
<path d="M4.98814 12L6.83614 6.53667H8.3468L10.1948 12H8.95547L8.5888 10.8853H6.5868L6.22014 12H4.98814ZM6.90214 9.89533H8.27347L7.43747 7.314H7.74547L6.90214 9.89533ZM12.4233 12.088C12.0322 12.088 11.6827 11.9951 11.3747 11.8093C11.0667 11.6236 10.8222 11.3718 10.6413 11.054C10.4653 10.7362 10.3773 10.3842 10.3773 9.998C10.3773 9.60689 10.4678 9.25489 10.6487 8.942C10.8296 8.62422 11.074 8.37244 11.382 8.18667C11.69 8.00089 12.0347 7.908 12.416 7.908C12.7093 7.908 12.9684 7.96422 13.1933 8.07667C13.4231 8.18422 13.604 8.33822 13.736 8.53867L13.5673 8.75867V6.44867H14.6673V12H13.6407V11.2667L13.7433 11.494C13.6064 11.6896 13.4207 11.8387 13.186 11.9413C12.9513 12.0391 12.6971 12.088 12.4233 12.088ZM12.5553 11.098C12.7558 11.098 12.9318 11.0516 13.0833 10.9587C13.2349 10.8658 13.3522 10.7362 13.4353 10.57C13.5233 10.4038 13.5673 10.2131 13.5673 9.998C13.5673 9.78289 13.5233 9.59222 13.4353 9.426C13.3522 9.25978 13.2349 9.13022 13.0833 9.03733C12.9318 8.94444 12.7558 8.898 12.5553 8.898C12.3549 8.898 12.174 8.94689 12.0127 9.04467C11.8562 9.13756 11.734 9.26711 11.646 9.43333C11.558 9.59467 11.514 9.78289 11.514 9.998C11.514 10.2131 11.558 10.4038 11.646 10.57C11.734 10.7362 11.8562 10.8658 12.0127 10.9587C12.174 11.0516 12.3549 11.098 12.5553 11.098Z" fill="#3676F7"/>
</svg>
