<svg width="20" height="20" viewBox="0 0 20 20" fill="none" xmlns="http://www.w3.org/2000/svg">
<path d="M9.61316 5.58354C9.83959 5.28163 10.2459 5.17493 10.5865 5.33737C12.7922 6.38925 14.2931 7.56002 15.5144 9.52485C15.711 9.84105 15.6519 10.2491 15.3886 10.5124L12.2558 13.6452C10.9783 14.9227 8.93744 15.0153 7.54954 13.8587V13.8587C6.12091 12.6682 5.87549 10.5671 6.99128 9.07938L9.61316 5.58354Z" stroke="#3676F7" stroke-width="1.25"/>
<path d="M15.4869 3.69586L10.0001 5.06756C12.7582 6.26119 14.4879 7.55163 15.8335 10.0676L16.516 4.60767C16.5886 4.02661 16.055 3.55383 15.4869 3.69586Z" stroke="#3676F7" stroke-width="1.25" stroke-linecap="round" stroke-linejoin="round"/>
<path d="M12.0264 18.1552L13.0148 15.1898C13.21 14.6042 13.0576 13.9586 12.6211 13.5221C12.5552 13.4562 12.4474 13.4592 12.3842 13.5277C11.6388 14.3345 11.1104 14.7371 10.4974 14.9434C10.2467 15.0278 10.0923 15.2985 10.1906 15.5441L11.2442 18.1782C11.3884 18.5386 11.9036 18.5234 12.0264 18.1552Z" stroke="#3676F7" stroke-width="1.25" stroke-linecap="round" stroke-linejoin="round"/>
<path d="M1.97948 9.49452L4.51346 8.22754C5.3444 7.81207 6.32247 7.81207 7.15341 8.22754C7.3278 8.31474 7.37096 8.54409 7.23894 8.68758C6.55989 9.42565 6.1026 9.87914 5.91865 10.4523C5.84362 10.6861 5.62419 10.866 5.38202 10.8256L2.09732 10.2782C1.69928 10.2119 1.61855 9.67499 1.97948 9.49452Z" stroke="#3676F7" stroke-width="1.25" stroke-linecap="round" stroke-linejoin="round"/>
<path d="M10.8334 10.0678L5.83337 15.0678" stroke="#3676F7" stroke-width="1.25" stroke-linecap="round" stroke-linejoin="round"/>
</svg>
