<svg width="40" height="40" viewBox="0 0 40 40" fill="none" xmlns="http://www.w3.org/2000/svg">
<circle cx="20" cy="20" r="20" fill="#3676F7"/>
<path d="M19.8122 32C19.8122 32 29.6245 27.6875 29.6245 21.5C29.6245 15.3125 29.6245 11 29.6245 11C29.6245 11 29.0312 11.0847 28.1034 11.0847C26.05 11.0847 22.3525 10.6692 19.8122 8C17.272 10.6692 13.5752 11.0847 11.5202 11.0847C10.5925 11.0847 10 11 10 11C10 11 10 15.3125 10 21.5C10 27.6875 19.8122 32 19.8122 32ZM11.5 12.5847C11.5068 12.5847 11.5135 12.5847 11.521 12.5847C13.4972 12.5847 16.9975 12.2255 19.813 10.0205C22.6285 12.2255 26.128 12.5847 28.105 12.5847C28.1118 12.5847 28.1185 12.5847 28.126 12.5847V21.5C28.126 25.4473 22.5948 28.9783 19.8123 30.3447C17.0275 28.9828 11.5 25.46 11.5 21.5V12.5847H11.5Z" fill="white"/>
<path d="M25.4949 16.0152L24.2544 15.1721L18.9969 22.9144L15.7464 20.6074L14.8779 21.8299L19.3779 25.0234L25.4949 16.0152Z" fill="white"/>
</svg>
