<svg width="24" height="24" viewBox="0 0 24 24" fill="none" xmlns="http://www.w3.org/2000/svg">
<path d="M5.77778 21L5.03936 21.1313C5.10299 21.4892 5.41421 21.75 5.77778 21.75V21ZM18.2222 21V21.75C18.5858 21.75 18.897 21.4892 18.9606 21.1313L18.2222 21ZM14.6667 12.3846L13.9946 12.7175C14.1522 13.0357 14.5114 13.1998 14.8551 13.1106L14.6667 12.3846ZM9.33333 12.3846L9.14487 13.1106C9.48861 13.1998 9.84782 13.0357 10.0054 12.7175L9.33333 12.3846ZM4 17.25C3.58579 17.25 3.25 17.5858 3.25 18C3.25 18.4142 3.58579 18.75 4 18.75V17.25ZM20 18.75C20.4142 18.75 20.75 18.4142 20.75 18C20.75 17.5858 20.4142 17.25 20 17.25V18.75ZM3.26158 11.1313L5.03936 21.1313L6.5162 20.8687L4.73842 10.8687L3.26158 11.1313ZM5.77778 21.75H18.2222V20.25H5.77778V21.75ZM18.9606 21.1313L20.7384 11.1313L19.2616 10.8687L17.4838 20.8687L18.9606 21.1313ZM19.8115 10.2741L14.4782 11.6587L14.8551 13.1106L20.1885 11.7259L19.8115 10.2741ZM15.3388 12.0518L12.6721 6.66715L11.3279 7.33285L13.9946 12.7175L15.3388 12.0518ZM11.3279 6.66715L8.66124 12.0518L10.0054 12.7175L12.6721 7.33285L11.3279 6.66715ZM9.5218 11.6587L4.18846 10.2741L3.81154 11.7259L9.14487 13.1106L9.5218 11.6587ZM4 18.75H20V17.25H4V18.75ZM13.25 5C13.25 5.69036 12.6904 6.25 12 6.25V7.75C13.5188 7.75 14.75 6.51878 14.75 5H13.25ZM12 6.25C11.3096 6.25 10.75 5.69036 10.75 5H9.25C9.25 6.51878 10.4812 7.75 12 7.75V6.25ZM10.75 5C10.75 4.30964 11.3096 3.75 12 3.75V2.25C10.4812 2.25 9.25 3.48122 9.25 5H10.75ZM12 3.75C12.6904 3.75 13.25 4.30964 13.25 5H14.75C14.75 3.48122 13.5188 2.25 12 2.25V3.75ZM21.25 9C21.25 9.69036 20.6904 10.25 20 10.25V11.75C21.5188 11.75 22.75 10.5188 22.75 9H21.25ZM20 10.25C19.3096 10.25 18.75 9.69036 18.75 9H17.25C17.25 10.5188 18.4812 11.75 20 11.75V10.25ZM18.75 9C18.75 8.30964 19.3096 7.75 20 7.75V6.25C18.4812 6.25 17.25 7.48122 17.25 9H18.75ZM20 7.75C20.6904 7.75 21.25 8.30964 21.25 9H22.75C22.75 7.48122 21.5188 6.25 20 6.25V7.75ZM5.25 9C5.25 9.69036 4.69036 10.25 4 10.25V11.75C5.51878 11.75 6.75 10.5188 6.75 9H5.25ZM4 10.25C3.30964 10.25 2.75 9.69036 2.75 9H1.25C1.25 10.5188 2.48122 11.75 4 11.75V10.25ZM2.75 9C2.75 8.30964 3.30964 7.75 4 7.75V6.25C2.48122 6.25 1.25 7.48122 1.25 9H2.75ZM4 7.75C4.69036 7.75 5.25 8.30964 5.25 9H6.75C6.75 7.48122 5.51878 6.25 4 6.25V7.75Z" fill="#FFBD2F"/>
</svg>
